<svg xmlns="http://www.w3.org/2000/svg" viewBox="0 0 424.1 302">
  <rect width="100%" height="100%" />
  <path fill="#FDB924" d="M381.1 79.9c3.5 4.1 6.7 8.3 9.7 12.8H417c-2.4-4.4-5.1-8.7-7.9-12.8" />
  <path fill="none" stroke="#FDB924" stroke-width=".375" stroke-linecap="round" stroke-linejoin="round" stroke-miterlimit="10" d="M381.1 79.9c3.5 4.1 6.7 8.3 9.7 12.8H417c-2.4-4.4-5.1-8.7-7.9-12.8" />
  <path fill="#FDB924" d="M150.2 113.2c3.4-9.6 7.8-18.7 13.1-27.2h-25.7c-4.4 8.7-8.1 17.8-11 27.2 0 0 7.2-1.6 17.5-11.9 0 0 4.7 4.9 6.1 11.9z" />
  <path fill="none" stroke="#FDB924" stroke-width=".375" stroke-linecap="round" stroke-linejoin="round" stroke-miterlimit="10" d="M150.2 113.2c3.4-9.6 7.8-18.7 13.1-27.2h-25.7c-4.4 8.7-8.1 17.8-11 27.2 0 0 7.2-1.6 17.5-11.9 0 0 4.7 4.9 6.1 11.9h0z" />
  <path fill="#FFD994" d="m152.2 92.6 11.1-6.6h-25.7l-3.2 6.6h17.8z" />
  <path fill="none" stroke="#FFD994" stroke-width=".375" stroke-linecap="round" stroke-linejoin="round" stroke-miterlimit="10" d="m152.2 92.6 11.1-6.6h-25.7l-3.2 6.6h17.8z" />
  <path fill="#FDB924" d="M392.7 113.2c-3.4-9.6-7.8-18.7-13.1-27.2h25.7c4.4 8.7 8.1 17.8 11 27.2 0 0-7.2-1.6-17.5-11.9 0 0-4.8 4.9-6.1 11.9z" />
  <path fill="none" stroke="#FDB924" stroke-width=".375" stroke-linecap="round" stroke-linejoin="round" stroke-miterlimit="10" d="M392.7 113.2c-3.4-9.6-7.8-18.7-13.1-27.2h25.7c4.4 8.7 8.1 17.8 11 27.2 0 0-7.2-1.6-17.5-11.9 0 0-4.8 4.9-6.1 11.9h0z" />
  <path fill="#FFD994" d="M390.7 92.6 379.6 86h25.7l3.2 6.6h-17.8z" />
  <path fill="none" stroke="#FFD994" stroke-width=".375" stroke-linecap="round" stroke-linejoin="round" stroke-miterlimit="10" d="M390.7 92.6 379.6 86h25.7l3.2 6.6h-17.8z" />
  <path fill="#FDB924" d="M271.5 6.8c-62.7 0-117.2 34.7-145.5 85.9h26.2c25.8-38.3 69.7-63.5 119.3-63.5 49.7 0 93.5 25.2 119.4 63.5h26.2C388.7 41.5 334.2 6.8 271.5 6.8" />
  <path fill="none" stroke="#FDB924" stroke-width=".375" stroke-linecap="round" stroke-linejoin="round" stroke-miterlimit="10" d="M271.5 6.8c-62.7 0-117.2 34.7-145.5 85.9h26.2c25.8-38.3 69.7-63.5 119.3-63.5 49.7 0 93.5 25.2 119.4 63.5h26.2C388.7 41.5 334.2 6.8 271.5 6.8" />
  <path fill="#FFF" d="M165.1 63.5c.3-.3.4-.5-.1-.7l-1.6-.8c-.8-.4-1.9-.9-2.3-1.1.2.5.7 1.5 1.2 2.4l.7 1.5c.3.5.4.5.8.1l1.3-1.4zm-.9 2.4c-.3.4-.4.4-.2.8l1.2 2.3c.2.4.3.5.4.6.1.1.4 0 .8-.4l.5-.4c.2 0 .6.3.5.5-.5.5-1.1 1-1.7 1.6-.5.5-.8.9-1.5 1.6-.2.1-.5-.2-.6-.5l.3-.4c.3-.4.5-.8.1-1.6-.3-.8-.8-1.8-1.5-3.3l-2.3-4.9c-.6-1.3-.9-2-1.3-2.4.5-.9.3-2.1.4-2.2.2-.2.4-.2.6 0 .5.3 1.3.7 2.7 1.3l7.8 3.7c1.2.6 1.7.8 2.3.3l.6-.5c.2 0 .5.3.5.5-.7.7-1.5 1.5-2.3 2.2-.7.7-1.3 1.3-1.9 2-.2.1-.6-.2-.5-.5l.4-.5c.3-.4.2-.6.1-.6-.1-.1-.6-.3-1.3-.7l-1.7-.9c-.3-.2-.5-.1-1 .5l-1.4 1.9zm11.9-9.9c.7.9 1.2 1.4 1.8 1.5.6.1 1.1-.2 1.7-.6 2.8-2.3 1.7-5.5-.1-7.7-2.4-2.9-5.3-3.4-8.2-1-.4.4-.7.7-.7.9 0 .2.2.5.6 1l4.9 5.9zm-6.4-3.3c-1.3-1.5-1.5-1.8-2.3-1.3l-.3.2c-.2 0-.6-.4-.4-.6 1.3-1.2 2.5-2.3 4.2-3.7 1.3-1.1 2.7-2 4.2-2.5 2.7-1 5.4 0 7.1 2 1.8 2.2 2.1 4.7 1 7.2-.7 1.4-1.8 2.7-3.5 4.1-.8.6-1.6 1.2-2.2 1.7-.8.6-1.6 1.3-2.5 2.1-.2 0-.5-.4-.5-.6l.4-.5c.6-.7.6-.9-.6-2.4l-4.6-5.7zm26.2-13.2c.4-.2.5-.4.1-.7l-1.3-1.2c-.7-.6-1.6-1.4-2-1.7.1.5.3 1.7.5 2.7l.3 1.6c.1.6.2.6.7.3l1.7-1zm-1.5 2.1c-.4.3-.5.3-.4.7l.5 2.5c.1.4.2.6.3.7.1.1.4.1.9-.1l.6-.2c.2.1.5.5.3.6-.6.3-1.3.7-2.1 1.1-.6.4-1 .7-1.8 1.1-.3 0-.5-.4-.4-.6l.5-.3c.4-.3.7-.7.6-1.5-.1-.9-.3-2-.6-3.5l-.9-5.3c-.3-1.4-.3-2.2-.7-2.7.7-.7.9-2 .9-2 .2-.1.4-.1.6.1.5.4 1.1 1 2.3 2l6.6 5.6c1 .9 1.4 1.2 2.1.9l.7-.3c.2 0 .5.4.4.6-.9.5-1.9 1-2.8 1.6-.9.5-1.6 1-2.4 1.5-.3 0-.5-.3-.4-.6l.5-.4c.4-.3.4-.5.3-.6-.1-.1-.5-.5-1.1-1l-1.4-1.3c-.3-.2-.4-.2-1 .2l-2.1 1.2zm15.2-2.5c-1.7.8-3 .8-3.5.8-.6-.2-1.4-1.5-2-2.8 0-.3.4-.5.7-.4 1 1 3 2.2 4.6 1.4 1.4-.7 1.6-1.9 1.1-2.9-.7-1.5-2.6-1.7-4-1.8-1.7 0-3.7-.5-4.6-2.3-1-2.1-.1-4.4 2.6-5.7.6-.3 1.4-.6 2.3-.7.3 0 .5-.1.7-.2.3.3 1 1.3 1.6 2.5 0 .3-.4.5-.7.4-.8-.8-2.2-1.8-3.6-1.1-1.2.6-1.5 1.7-1.1 2.7.4.9 1.6 1.3 2.7 1.3l1.6.1c1.5.1 3.5.4 4.4 2.5 1.2 2.5 0 4.9-2.8 6.2zm6.8-16.5c-.2-.5-.2-.6-.7-.4l-1.2.4c-1.4.5-1.5 1.5-1.6 3.1-.2.2-.6.3-.8.1-.1-1.5-.4-2.7-.6-3.6.1-.1.1-.2.2-.2s.2-.1.3 0c.2.3.3.4 1.8-.2l7.3-2.7c1.3-.5 1.6-.6 1.6-1.1l.2-.2h.3c0 .7.5 2.4.9 3.5 0 .2-.5.4-.7.3-.8-1.1-1.4-1.9-2.9-1.4l-1.2.4c-.5.2-.5.3-.3.8l3.2 8.6c.7 1.8.8 1.9 1.8 1.7l.8-.2c.2.1.3.5.2.7-1.3.4-2.3.8-3.1 1.1-.9.3-1.9.7-3.3 1.3-.2-.1-.4-.5-.2-.7l.8-.4c.8-.4.9-.6.2-2.5l-3-8.4zm15.9-.5c.2.7.3.8 1.4.4.7-.2 1.1-.5 1.4-1 .3-.4.5-1.2.2-2.4-.5-1.8-1.8-2.7-3.4-2.3-.8.2-.9.3-.6 1.2l1 4.1zm-3.4-1.8c-.5-2-.6-2.2-1.5-2.1l-.6.1c-.2 0-.4-.6-.1-.7 1.5-.5 3-1 4.9-1.5 1.7-.4 3.2-.6 4.1-.3 1.3.4 2.2 1.2 2.5 2.5.5 1.8-.5 2.9-1.4 3.6-.2.2-.1.3 0 .5 2 2.4 3.2 3.7 4.4 4.2.6.3 1.2.3 1.5.2.2.1.3.4.2.5-.3.2-.9.4-1.5.6-1.9.5-3.2.1-4.4-1.1-.9-.9-1.6-1.8-2.4-2.7-.4-.5-.7-.6-1.2-.4-.7.2-.7.2-.6.6l.6 2.5c.5 1.9.6 2 1.6 1.9h.6c.2.1.3.5.2.7-1.1.2-2 .5-3 .7-1 .3-1.9.5-2.9.8-.2-.1-.3-.6-.2-.7l.5-.2c.9-.4.9-.6.5-2.4l-1.8-7.3zm21 .2c.5-.1.6-.1.3-.7l-.8-1.6c-.4-.8-1-1.9-1.2-2.3-.1.5-.3 1.7-.5 2.7l-.3 1.6c-.1.6 0 .6.5.6l2-.3zm-2.1 1.4c-.5.1-.6.1-.6.5l-.5 2.5c-.1.4-.1.6 0 .8 0 .1.3.2.9.2h.6c.1.1.3.6.1.7-.7.1-1.5.2-2.3.3-.7.1-1.2.2-2.1.4-.2-.1-.3-.5-.2-.7l.5-.1c.5-.1.9-.4 1.1-1.2.2-.9.5-1.9.8-3.5l1.1-5.3c.3-1.4.5-2.1.4-2.7 1-.4 1.6-1.5 1.6-1.5.3 0 .4 0 .5.3.3.6.6 1.3 1.3 2.7l4 7.7c.6 1.2.9 1.6 1.6 1.6h.8c.1.1.3.6.1.7-1 .1-2.1.2-3.2.4-1 .1-1.8.3-2.8.5-.2-.1-.4-.5-.1-.7l.6-.2c.5-.1.5-.3.5-.4 0-.1-.2-.6-.6-1.3l-.8-1.7c-.1-.3-.3-.3-1-.2l-2.3.2zm18.7-7.5c0-2.1-.1-2.3-.9-2.4l-.7-.1c-.2-.1-.2-.6 0-.7 1.4-.1 3-.2 4.8-.2 1.8 0 2.9.2 3.8.5 1.3.5 2.6 1.6 2.6 3.6 0 3.4-3.4 3.9-4.5 4h-.7c-.2-.1-.2-.4-.1-.6 1.7-.6 2.1-1.8 2-3.3 0-1.5-.8-3.2-2.7-3.2-.8 0-.8.2-.8 1.1l.1 8.8c0 1.9.1 2.1 1.1 2.2l.7.1c.2.1.2.6 0 .7H268c-1 0-2 0-3.1.1-.2-.1-.3-.6 0-.7l.6-.1c.9-.2 1.1-.3 1-2.3v-7.5zm16.9 2.4c0 .6 0 .6.5.7l1.4.1c1.1.1 1.3 0 1.6-1l.1-.5c.2-.2.7-.1.8.1-.1.7-.2 1.4-.2 2.2-.1.8-.1 1.5-.1 2.2-.1.2-.6.2-.8 0l-.1-.5c-.1-1-.4-1.2-1.4-1.3l-1.4-.1c-.6 0-.6 0-.6.6l-.2 2.5c-.1 1 0 1.6.2 2 .2.4.6.6 2.1.7 1.8.1 2.5.1 3.8-2.1.2-.2.7-.1.8.2-.2 1.1-.8 2.7-1.1 3.2-1.1-.1-3.1-.3-4.8-.4l-2.7-.2c-1-.1-2-.1-3.6-.2-.2-.1-.1-.6.1-.7l1-.1c.9-.1 1.1-.2 1.2-2.1l.6-7.7c.2-1.9 0-2-.9-2.3l-.5-.1c-.2-.1-.1-.6.1-.7l3 .3 4.4.4c1.3.1 2.5.2 2.8.2v3.2c-.1.2-.6.2-.8 0-.2-.7-.4-1.4-.7-1.7-.4-.4-1-.7-2-.8l-1.7-.1c-.7-.1-.7 0-.8.8l-.1 3.2zm13.8 2.3c-.1.7-.1.8 1.1 1 .7.1 1.2 0 1.7-.3.4-.3.9-.9 1.1-2.1.3-1.8-.5-3.2-2.1-3.5-.8-.2-.9-.1-1.1.9l-.7 4zm-2.3-3.1c.4-2 .4-2.3-.5-2.6l-.5-.2c-.2-.1-.1-.7.2-.7 1.5.2 3.2.4 5.1.7 1.7.3 3.2.9 3.9 1.5 1.1.9 1.5 2 1.3 3.4-.3 1.8-1.7 2.4-2.7 2.7-.2.1-.2.2-.2.4.9 3 1.4 4.7 2.2 5.7.5.5 1 .7 1.3.8.2.1.1.4 0 .5-.4.1-1 0-1.6-.1-1.9-.3-2.9-1.2-3.6-2.9-.5-1.2-.7-2.3-1-3.5-.1-.6-.4-.8-1-.9-.7-.1-.8-.1-.8.3l-.5 2.5c-.3 1.9-.2 2 .7 2.4l.5.2c.1.1 0 .6-.1.7-1.1-.2-2-.4-3-.6-1-.2-1.9-.3-3-.5-.1-.2-.1-.6.1-.7h.6c1 0 1.1-.1 1.4-2l1.2-7.1zm24.4 10.6c.5.1.6.1.6-.4v-4.4c-.3.4-1.1 1.3-1.7 2.1l-1 1.3c-.4.5-.3.6.2.7l1.9.7zm-2.6.3c-.5-.2-.5-.2-.8.2l-1.5 2c-.3.4-.3.5-.4.7 0 .1.2.3.7.6l.6.3c.1.2 0 .6-.3.7-.7-.3-1.4-.5-2.2-.8-.7-.2-1.1-.3-2.1-.6-.2-.2 0-.6.2-.7l.6.1c.5.1.9.1 1.5-.6s1.3-1.5 2.3-2.7l3.4-4.2c.9-1.1 1.4-1.7 1.6-2.3 1 .1 2.1-.6 2.1-.6.3.1.3.2.3.5v3l.1 8.6c0 1.3 0 1.8.7 2.2l.7.4c.1.1 0 .6-.2.7-.9-.4-2-.7-3-1.1-1-.3-1.8-.6-2.7-.8-.2-.2-.1-.6.2-.7l.7.1c.5.1.6 0 .6-.2 0-.1.1-.7.1-1.5v-1.9c0-.3-.1-.4-.8-.7l-2.4-.7zm11.9 9.9c-1.7-.8-2.6-1.7-2.9-2.1-.2-.6.2-2.1.7-3.4.2-.2.7 0 .8.3-.2 1.4.3 3.7 2 4.4 1.4.6 2.5-.1 2.9-1 .7-1.5-.4-3.1-1.3-4.2-1.1-1.3-2.1-3.1-1.2-5 .9-2.2 3.2-2.9 6-1.7.6.3 1.4.7 2 1.3.2.2.4.3.6.4 0 .5-.3 1.6-.8 2.9-.2.2-.7 0-.8-.3.1-1.1-.1-2.9-1.5-3.5-1.3-.6-2.3 0-2.7.9-.4.9 0 2 .8 2.9l1 1.2c.9 1.1 1.9 2.9 1 5-1.1 2.4-3.7 3.1-6.6 1.9zm13.5-5.5c1-1.8 1.1-2.1.4-2.6l-.5-.4c-.1-.2.1-.6.4-.6 1.3.6 2.7 1.3 4.3 2.1 1.5.8 2.5 1.6 3.1 2.3.9 1 1.5 2.6.5 4.4-1.6 3-4.9 1.8-5.9 1.3l-.6-.3c-.1-.2 0-.5.2-.5 1.8.4 2.7-.6 3.4-1.9.7-1.3.8-3.2-.8-4.1-.7-.4-.8-.2-1.2.5l-4.2 7.7c-.9 1.7-.9 1.9-.1 2.5l.5.4c.2.2-.1.6-.3.6-1-.6-1.9-1.1-2.8-1.6-.9-.5-1.8-.9-2.8-1.4-.1-.2.1-.7.3-.6l.6.2c.9.3 1.1.2 2-1.5l3.5-6.5zm13.6 10.3c-.3.5-.3.5.1.8l1.2.8c.9.6 1.2.6 1.9-.1l.4-.4c.2-.1.6.2.6.4-.4.5-.8 1.1-1.3 1.8-.4.7-.8 1.3-1.2 1.9-.2.1-.6-.2-.7-.4l.3-.4c.4-.9.3-1.2-.6-1.8l-1.2-.8c-.5-.3-.5-.3-.8.2l-1.4 2.1c-.5.8-.8 1.4-.8 1.8 0 .5.2.8 1.5 1.7 1.5 1 2.1 1.3 4.4 0 .3-.1.7.3.6.5-.7.9-2 2-2.6 2.3-.9-.6-2.5-1.8-4-2.7l-2.2-1.5c-.8-.6-1.7-1.1-3-1.9-.1-.2.2-.6.4-.6l.9.4c.9.4 1 .4 2.1-1.2l4.3-6.4c1.1-1.6 1-1.7.4-2.4l-.4-.4c-.1-.2.2-.6.4-.6.8.6 1.6 1.2 2.4 1.7l3.7 2.5c1.1.7 2.1 1.4 2.3 1.5-.2.3-.9 1.6-1.6 2.8-.2.1-.6-.1-.7-.4.2-.7.3-1.4.3-1.8-.1-.5-.5-1.1-1.3-1.7l-1.4-.9c-.6-.4-.6-.3-1 .3l-2 2.9zm10.9 8.8c-.5.6-.4.7.5 1.4.6.5 1 .6 1.6.6.5 0 1.2-.3 2-1.3 1.2-1.4 1.1-3.1-.1-4.1-.7-.5-.7-.5-1.4.3l-2.6 3.1zm-.5-3.9c1.3-1.6 1.4-1.8.8-2.5l-.4-.4c-.1-.2.2-.6.5-.5 1.3.9 2.6 1.9 4.1 3.1 1.4 1.1 2.4 2.3 2.7 3.2.5 1.3.3 2.5-.5 3.5-1.2 1.4-2.6 1.2-3.7 1-.2-.1-.3 0-.4.3-.7 3-1 4.8-.8 6.1.1.7.5 1.1.7 1.3.1.2-.1.4-.3.5-.4-.1-.9-.5-1.4-.9-1.5-1.2-2-2.5-1.7-4.2.2-1.3.5-2.4.8-3.5.2-.6 0-.9-.4-1.3-.6-.5-.6-.5-.9-.1l-1.6 2c-1.2 1.5-1.2 1.7-.6 2.4l.4.4c0 .2-.3.6-.5.6-.8-.7-1.5-1.4-2.3-2-.8-.7-1.5-1.2-2.4-1.9 0-.2.3-.6.5-.6l.5.3c.8.5 1 .4 2.2-1l4.7-5.8zm12.2 17.1c.3.3.5.4.7-.1l.8-1.6c.4-.8 1-1.9 1.2-2.3-.5.2-1.5.7-2.4 1.2l-1.5.7c-.5.3-.5.4-.1.8l1.3 1.3zm-2.4-1c-.3-.4-.4-.4-.8-.2l-2.3 1.1c-.4.2-.5.3-.6.4-.1.1 0 .4.3.9l.4.5c0 .2-.3.6-.5.5-.5-.5-1-1.1-1.6-1.7-.5-.5-.9-.8-1.6-1.5-.1-.3.3-.5.5-.6l.4.4c.4.3.8.5 1.6.2s1.8-.8 3.3-1.4l5-2.2c1.3-.6 2-.8 2.4-1.3.9.6 2.1.4 2.2.4.2.2.2.4 0 .6-.3.5-.7 1.3-1.4 2.7l-3.8 7.7c-.6 1.2-.8 1.7-.3 2.3l.5.7c0 .2-.3.5-.5.5-.7-.7-1.4-1.6-2.2-2.3l-2-2c-.1-.3.2-.6.5-.5l.5.4c.4.3.6.2.6.2.1-.1.4-.6.7-1.3l.9-1.7c.2-.3.1-.5-.4-1l-1.8-1.8zM275.8 52.2l-4.2-2.3-4.2 2.1.9-4.7L265 44l4.7-.6 2.2-4.2 2 4.3 4.6.8-3.4 3.2.7 4.7zm15.4 1.7-3.9-2.7-4.4 1.7 1.3-4.5-3-3.7 4.8-.1 2.5-4 1.6 4.5 4.6 1.2-3.7 2.9.2 4.7zm15.2 4.5-3.4-3.3-4.6.9 2.1-4.2-2.3-4.2 4.7.8 3.3-3.5.7 4.7 4.3 2-4.2 2.2-.6 4.6zm15.1 6.7-2.9-3.7-4.7.2 2.7-3.9-1.7-4.4 4.5 1.3 3.7-2.9.1 4.7 4 2.6-4.5 1.6-1.2 4.5zm13.9 8.8-2.5-4.1-4.7-.3 3.1-3.6-1.1-4.5 4.3 1.8 4-2.5-.4 4.7 3.6 3-4.6 1.1-1.7 4.4zm19 4.5-4.6.8-2 4.3-2.2-4.1-4.7-.6 3.3-3.4-1-4.6 4.3 2 4.1-2.3-.7 4.7 3.5 3.2zm11.4 14.4-4.7-.1-2.8 3.9-1.4-4.5-4.5-1.4 3.9-2.7-.1-4.8 3.8 2.9 4.5-1.6L363 89l2.8 3.8zM341.6 105l-2-4.3-4.6-.8 3.4-3.2-.7-4.6 4.2 2.2 4.2-2.1-.9 4.7 3.3 3.4-4.7.5-2.2 4.2zm-12-12.7-2.3-4.1-4.7-.4 3.2-3.5-1-4.6 4.2 2 4.1-2.4-.5 4.6 3.5 3.2-4.6.9-1.9 4.3zm-14.1-8.9-2.6-3.9-4.7-.1 3-3.7-1.4-4.5 4.4 1.6 3.9-2.7-.2 4.8 3.7 2.8-4.5 1.3-1.6 4.4zm-14.3-7.8-3.6-3.2-4.6 1.1 2-4.3-2.5-4 4.7.4 3-3.6 1 4.7 4.4 1.8-4.1 2.3-.3 4.8zm4.7 22.9-3.1-3.6-4.7.4 2.6-4-1.9-4.3 4.6 1.1 3.5-3.1.3 4.7 4.1 2.4-4.4 1.8-1 4.6zm-15.6-7.1-3.4-3.2-4.7.9 2.1-4.2-2.4-4.1 4.7.6 3.2-3.5.8 4.6 4.3 2-4.1 2.2-.5 4.7zm-5.2-19.3-3.9-2.7-4.4 1.6 1.4-4.5-3-3.7 4.8-.1 2.6-3.9 1.5 4.5 4.6 1.2-3.8 2.9.2 4.7zm-32.3-18.2 3.9-2.7 4.5 1.7-1.4-4.5 3-3.7-4.7-.1-2.6-4-1.6 4.4-4.5 1.3 3.7 2.9-.3 4.7zm-16.4 4.5 3.4-3.3 4.6.9-2.1-4.2 2.3-4.2-4.7.8-3.2-3.5-.8 4.7-4.3 2 4.2 2.2.6 4.6zm-14.6 6.7 2.9-3.7 4.7.2-2.7-3.9 1.7-4.4-4.5 1.3-3.7-2.9-.1 4.7-4 2.6 4.5 1.6 1.2 4.5zm-14.2 8.8 2.4-4.1 4.8-.3-3.1-3.5 1.1-4.6-4.3 1.8-4-2.5.4 4.7-3.6 3 4.6 1.1 1.7 4.4zm-18.7 4.5 4.7.8 1.9 4.3 2.2-4.2 4.8-.5-3.3-3.4.9-4.6-4.3 2-4.1-2.3.7 4.7-3.5 3.2zm-11.6 14.4h4.8l2.7 3.8 1.4-4.5 4.5-1.4-3.8-2.7v-4.8l-3.8 2.9-4.4-1.6 1.5 4.5-2.9 3.8zm-8.4 15.9 4.6-1.2 3.6 3 .2-4.7 4.1-2.4-4.4-1.7-1.1-4.7-3 3.7-4.7-.4 2.5 4-1.8 4.4zm15.3 5.5 4.7-.5 3 3.6 1-4.6 4.4-1.8-4.1-2.4-.4-4.7-3.5 3.1-4.6-1.1 1.9 4.3-2.4 4.1zm29.1-8.8 4.6.6 2.2 4.2 2-4.2 4.7-.8-3.4-3.2.7-4.7-4.2 2.3-4.2-2.2.9 4.7-3.3 3.3zm113.5 0-4.7.6-2.2 4.2-2-4.2-4.7-.8 3.5-3.2-.8-4.7 4.2 2.3 4.2-2.2-.9 4.7 3.4 3.3zm32.2 8.8-4.7-.5-3.1 3.6-1-4.6-4.3-1.8 4-2.4.4-4.7 3.5 3.1 4.6-1.1-1.9 4.3 2.5 4.1zm15.2-5.5-4.6-1.2-3.6 3-.3-4.7-4-2.4 4.4-1.7 1.1-4.7 3 3.7 4.7-.4-2.6 4 1.9 4.4zM201.4 105l2-4.3 4.6-.7-3.4-3.3.7-4.6-4.2 2.3-4.2-2.1.9 4.6-3.3 3.4 4.7.5 2.2 4.2zm13.1-12.7 2.3-4.1 4.7-.4-3.2-3.5 1-4.6-4.2 2-4.1-2.4.5 4.6-3.5 3.2 4.6.9 1.9 4.3zm13.7-8.9 2.6-3.9 4.7-.1-2.9-3.7 1.3-4.5-4.4 1.6-3.9-2.7.2 4.8-3.7 2.8 4.5 1.3 1.6 4.4zm15.4-7.9 3.5-3.1 4.6 1.1-1.9-4.3 2.5-4-4.8.4-3-3.6-1 4.7-4.4 1.8 4.1 2.3.4 4.7zm-8.5 23 2.5-4 4.7-.3-3.1-3.6 1.2-4.5-4.3 1.8-4-2.6.4 4.7-3.7 3 4.6 1.1 1.7 4.4zm16.2-7.1 3.4-3.3 4.6.8-2.1-4.2 2.2-4.1-4.6.7-3.3-3.4-.7 4.6-4.3 2.1 4.2 2.1.6 4.7zm9.2-19.3 3.9-2.7 4.4 1.6-1.4-4.5 2.9-3.7-4.7-.1-2.6-3.9-1.5 4.5-4.6 1.2 3.8 2.9-.2 4.7zm14.9 15-4.1-2.2-4.2 2.1.9-4.7-3.3-3.4 4.6-.5 2.2-4.2 2 4.3 4.7.7-3.5 3.3.7 4.6zM57.2 133.8l49.5 49.2c8.1 8.1 15 13.6 20.8 16.6 5.7 2.9 11.5 4.6 17.2 5v3.7H80.9v-3.7c3.8 0 6.6-.6 8.3-1.9 1.7-1.3 2.5-2.7 2.5-4.3 0-1.6-.3-3-.9-4.3-.6-1.3-2.7-3.6-6.2-7l-46.3-45.8v43.3c0 6.8.4 11.3 1.3 13.5.7 1.7 2 3.1 4.2 4.3 2.8 1.6 5.8 2.4 9 2.4h4.6v3.7H0v-3.7h4.7c5.5 0 9.6-1.6 12.1-4.9 1.6-2.1 2.4-7.2 2.4-15.2V97.8c0-6.8-.4-11.3-1.3-13.6-.7-1.6-2-3-4.1-4.2-2.9-1.6-5.9-2.4-9.1-2.4H0V74h57.2v3.7h-4.6c-3.1 0-6.1.8-9 2.3-2 1.1-3.5 2.6-4.3 4.7-.8 2.1-1.2 6.5-1.2 13.1v41.1c1.3-1.2 5.8-5.4 13.6-12.6 19.6-17.9 31.4-29.9 35.5-35.9 1.8-2.6 2.7-5 2.7-6.9 0-1.5-.7-2.9-2.1-4-1.4-1.2-3.7-1.7-7-1.7h-3.1V74H127v3.7c-2.9.1-5.5.5-7.9 1.2-2.4.7-5.3 2.1-8.7 4.2-3.4 2.1-7.7 5.4-12.7 10-1.5 1.3-8.2 8.1-20.1 20.3l-20.4 20.4z" />
  <path fill="#FFF" d="M155.3 177.9v-24.8c-7.2 2.8-11.8 4.9-13.9 6-3.7 2.1-6.4 4.3-8 6.5-1.6 2.3-2.4 4.8-2.4 7.5 0 3.4 1 6.2 3.1 8.5 2 2.3 4.4 3.4 7 3.4 3.6 0 8.3-2.4 14.2-7.1zm0 4.6c-6.7 5.2-10.9 8.2-12.6 9-2.6 1.2-5.3 1.8-8.2 1.8-4.5 0-8.2-1.5-11.1-4.6-2.9-3.1-4.4-7.1-4.4-12.2 0-3.2.7-5.9 2.1-8.2 1.9-3.2 5.3-6.3 10.1-9.1s12.8-6.3 24-10.4v-2.6c0-6.5-1-10.9-3.1-13.4-2.1-2.4-5.1-3.6-9-3.6-3 0-5.4.8-7.1 2.4-1.8 1.6-2.7 3.5-2.7 5.6l.1 4.1c0 2.2-.6 3.9-1.7 5-1.1 1.2-2.6 1.8-4.4 1.8-1.8 0-3.2-.6-4.3-1.8-1.1-1.2-1.7-2.9-1.7-5.1 0-4.1 2.1-7.8 6.3-11.2 4.2-3.4 10-5.1 17.6-5.1 5.8 0 10.5 1 14.2 2.9 2.8 1.5 4.9 3.8 6.2 6.9.9 2 1.3 6.2 1.3 12.5v22.1c0 6.2.1 10 .4 11.4.2 1.4.6 2.3 1.2 2.8.5.5 1.2.7 1.9.7.8 0 1.4-.2 2-.5 1-.6 2.9-2.3 5.8-5.2v4c-5.3 7.1-10.4 10.7-15.2 10.7-2.3 0-4.2-.8-5.5-2.4-1.4-1.6-2.2-4.4-2.2-8.3zm46.7-43.9c7.6-9.2 14.9-13.8 21.8-13.8 3.5 0 6.6.9 9.2 2.7 2.6 1.8 4.6 4.7 6.1 8.8 1 2.8 1.6 7.2 1.6 13.1v27.8c0 4.1.3 6.9 1 8.4.5 1.2 1.4 2.1 2.5 2.8 1.2.7 3.3 1 6.4 1v2.6h-32.2v-2.6h1.4c3 0 5.1-.5 6.4-1.4 1.2-.9 2.1-2.3 2.5-4.1.2-.7.3-2.9.3-6.7v-26.7c0-5.9-.8-10.2-2.3-12.9-1.5-2.7-4.1-4-7.8-4-5.6 0-11.3 3.1-16.9 9.2v34.3c0 4.4.3 7.1.8 8.2.7 1.4 1.6 2.4 2.7 3 1.2.6 3.5 1 7.1 1v2.6h-32.2v-2.6h1.4c3.3 0 5.6-.8 6.7-2.5 1.2-1.7 1.7-4.9 1.7-9.6V153c0-7.8-.2-12.6-.5-14.3-.4-1.7-.9-2.9-1.6-3.5-.7-.6-1.7-.9-2.9-.9-1.3 0-2.9.4-4.8 1.1l-1.1-2.6 19.6-8h3.1v13.8zm95.9-13.7V147h-2.3c-1.8-7-4.1-11.7-6.9-14.2-2.8-2.5-6.4-3.8-10.8-3.8-3.3 0-6 .9-8 2.6-2 1.8-3.1 3.7-3.1 5.8 0 2.7.8 4.9 2.3 6.8 1.5 1.9 4.4 4 9 6.2l10.4 5c9.6 4.7 14.4 10.9 14.4 18.6 0 5.9-2.2 10.7-6.7 14.3-4.5 3.6-9.5 5.4-15 5.4-4 0-8.5-.7-13.7-2.1-1.6-.5-2.8-.7-3.8-.7-1.1 0-1.9.6-2.6 1.8h-2.3v-23.2h2.3c1.3 6.6 3.9 11.6 7.6 15 3.7 3.4 7.9 5 12.6 5 3.3 0 5.9-1 8-2.9 2.1-1.9 3.1-4.2 3.1-6.9 0-3.3-1.1-6-3.4-8.2-2.3-2.2-6.9-5-13.8-8.5-6.9-3.4-11.4-6.5-13.5-9.2-2.1-2.7-3.2-6.1-3.2-10.2 0-5.4 1.8-9.8 5.5-13.4 3.7-3.6 8.4-5.4 14.2-5.4 2.6 0 5.7.5 9.3 1.6 2.4.7 4 1.1 4.8 1.1.8 0 1.4-.2 1.8-.5.4-.3.9-1.1 1.5-2.2h2.3v.1zm51.5 53v-24.8c-7.2 2.8-11.8 4.9-13.9 6-3.7 2.1-6.4 4.3-8 6.5-1.6 2.3-2.4 4.8-2.4 7.5 0 3.4 1 6.2 3 8.5s4.4 3.4 7 3.4c3.7 0 8.4-2.4 14.3-7.1zm0 4.6c-6.7 5.2-10.9 8.2-12.6 9-2.6 1.2-5.3 1.8-8.2 1.8-4.5 0-8.2-1.5-11.1-4.6-2.9-3.1-4.4-7.1-4.4-12.2 0-3.2.7-5.9 2.1-8.2 1.9-3.2 5.3-6.3 10.1-9.1s12.8-6.3 24-10.4v-2.6c0-6.5-1-10.9-3.1-13.4-2.1-2.4-5.1-3.6-9-3.6-3 0-5.4.8-7.1 2.4-1.8 1.6-2.7 3.5-2.7 5.6l.1 4.1c0 2.2-.6 3.9-1.7 5-1.1 1.2-2.6 1.8-4.4 1.8-1.8 0-3.2-.6-4.3-1.8-1.1-1.2-1.7-2.9-1.7-5.1 0-4.1 2.1-7.8 6.3-11.2 4.2-3.4 10-5.1 17.6-5.1 5.8 0 10.5 1 14.2 2.9 2.8 1.5 4.9 3.8 6.2 6.9.9 2 1.3 6.2 1.3 12.5v22.1c0 6.2.1 10 .4 11.4.2 1.4.6 2.3 1.2 2.8.5.5 1.2.7 1.9.7.8 0 1.4-.2 2-.5 1-.6 2.9-2.3 5.8-5.2v4c-5.3 7.1-10.4 10.7-15.2 10.7-2.3 0-4.2-.8-5.5-2.4-1.5-1.6-2.2-4.4-2.2-8.3zm69.8-57.6V147h-2.3c-1.8-7-4.1-11.7-6.9-14.2-2.8-2.5-6.4-3.8-10.8-3.8-3.3 0-6 .9-8 2.6-2 1.8-3.1 3.7-3.1 5.8 0 2.7.8 4.9 2.3 6.8 1.5 1.9 4.5 4 9 6.2l10.4 5c9.6 4.7 14.4 10.9 14.4 18.6 0 5.9-2.2 10.7-6.7 14.3-4.5 3.6-9.5 5.4-15 5.4-4 0-8.5-.7-13.6-2.1-1.6-.5-2.8-.7-3.8-.7-1.1 0-1.9.6-2.6 1.8H380v-23.2h2.3c1.3 6.6 3.9 11.6 7.6 15 3.7 3.4 7.9 5 12.6 5 3.3 0 5.9-1 8-2.9 2.1-1.9 3.1-4.2 3.1-6.9 0-3.3-1.1-6-3.4-8.2-2.3-2.2-6.9-5-13.8-8.5-6.9-3.4-11.4-6.5-13.5-9.2-2.1-2.7-3.2-6.1-3.2-10.2 0-5.4 1.8-9.8 5.5-13.4 3.7-3.6 8.4-5.4 14.3-5.4 2.6 0 5.7.5 9.3 1.6 2.4.7 4 1.1 4.8 1.1.8 0 1.4-.2 1.8-.5.4-.3.9-1.1 1.5-2.2h2.3v.1z" />
  <text transform="translate(24.093 242.21)" fill="#FFF" font-family="'TimesNewRomanPSMT'" font-size="38.024">Department for Children</text>
  <text transform="translate(114.348 280.419)" fill="#FFF" font-family="'TimesNewRomanPSMT'" font-size="38.024">and Families</text>
</svg>
